<?xml version="1.0" encoding="utf-8"?>
<svg viewBox="0 0 500 500" xmlns="http://www.w3.org/2000/svg">
  <g transform="matrix(0.915095, 0, 0, 0.850588, 19.360373, 51.725384)" style="">
    <g transform="matrix(1, 0, 0, 1, 1.161979, 62.784702)">
      <path style="fill: rgb(168, 168, 168);" d="M 431.711 416.129 C 384.829 369.93 321.366 343.942 251.615 343.942 C 181.864 343.942 118.401 369.93 71.519 416.129 L 431.711 416.129 Z"/>
    </g>
    <path style="fill: rgb(140, 140, 140);" d="M 253.133 407.282 C 322.884 407.282 386.347 433.27 433.229 479.469 L 338.321 479.469 L 255.419 416.522 L 253.133 407.282 Z"/>
  </g>
  <g transform="matrix(0.711402, 0, 0, 0.650901, 66.936226, -16.08341)" style="">
    <path style="fill: rgb(10, 160, 110);" d="M 303.071 352.605 L 303.071 132.578 C 303.071 105.435 278.486 82.913 251.615 82.913 C 224.744 82.913 200.158 104.858 200.158 132.578 L 200.158 352.605 L 303.071 352.605 Z"/>
    <g transform="matrix(0.714667, 0, 0, 0.721873, 71.518684, 60.967625)" style="">
      <path style="fill:#078457;" d="M252,404h72V99.2c0-37.6-33.6-68.8-72-68.8"/>
      <rect x="213.929" y="209.584" transform="matrix(-0.7072 0.7071 -0.7071 -0.7072 599.606 308.4362)" style="fill:#078457;" width="44.003" height="137.608"/>
    </g>
    <path style="fill: rgb(10, 160, 110);" d="M 188.725 237.105 L 188.725 184.553 C 188.725 171.848 178.433 161.453 165.855 161.453 C 153.276 161.453 142.986 171.848 142.986 184.553 L 142.986 237.105 L 188.725 237.105 Z"/>
    <path style="fill: rgb(7, 132, 87);" d="M 165.855 161.453 L 165.855 237.105 L 188.725 237.105 L 188.725 184.553 C 188.725 171.848 177.29 161.453 165.855 161.453 Z"/>
    <path style="fill: rgb(10, 160, 110);" d="M 217.311 214.005 L 166.427 214.005 C 153.848 214.005 143.558 224.4 143.558 237.105 C 143.558 249.81 153.848 260.205 166.427 260.205 L 217.311 260.205 L 217.311 214.005 Z"/>
    <path style="fill: rgb(7, 132, 87);" d="M 314.505 306.405 L 314.505 256.74 C 314.505 244.035 324.797 233.64 337.375 233.64 C 349.954 233.64 360.244 244.035 360.244 256.74 L 360.244 306.405 L 314.505 306.405 Z"/>
    <path style="fill: rgb(10, 160, 110);" d="M 337.375 233.64 L 337.375 306.405 L 314.505 306.405 L 314.505 256.74 C 314.505 244.035 325.94 233.64 337.375 233.64 Z"/>
    <path style="fill: rgb(7, 132, 87);" d="M 285.919 283.305 L 336.803 283.305 C 349.381 283.305 359.672 293.7 359.672 306.405 C 359.672 319.11 349.381 329.505 336.803 329.505 L 285.919 329.505 L 285.919 283.305 Z"/>
    <ellipse style="fill: rgb(10, 160, 110);" cx="216.168" cy="237.682" rx="6.289" ry="21.945"/>
    <g transform="matrix(0.714667, 0, 0, 0.721873, 71.518684, 60.967625)" style="">
      <polyline style="fill:#078457;" points="184,137.6 164.8,119.2 184,100.8 &#9;"/>
      <polyline style="fill:#078457;" points="222.4,176 203.2,157.6 222.4,139.2 &#9;"/>
      <polyline style="fill:#078457;" points="100.8,223.2 82.4,204.8 100.8,186.4 &#9;"/>
      <polyline style="fill:#078457;" points="139.2,261.6 120.8,243.2 139.2,224.8 &#9;"/>
      <polyline style="fill:#078457;" points="184,327.2 164.8,308.8 184,289.6 &#9;"/>
      <polyline style="fill:#078457;" points="222.4,365.6 203.2,347.2 222.4,328 &#9;"/>
    </g>
    <g transform="matrix(0.714667, 0, 0, 0.721873, 71.518684, 60.967625)" style="">
      <polyline style="fill:#0AA06E;" points="320,137.6 339.2,119.2 320,100.8 &#9;"/>
      <polyline style="fill:#0AA06E;" points="281.6,176 300.8,157.6 281.6,139.2 &#9;"/>
      <polyline style="fill:#0AA06E;" points="403.2,324 421.6,305.6 403.2,286.4 &#9;"/>
      <polyline style="fill:#0AA06E;" points="364.8,362.4 383.2,344 364.8,324.8 &#9;"/>
      <polyline style="fill:#0AA06E;" points="320,235.2 339.2,216.8 320,198.4 &#9;"/>
      <polyline style="fill:#0AA06E;" points="281.6,273.6 300.8,255.2 281.6,236.8 &#9;"/>
    </g>
  </g>
  <path class="st0" d="M 317.321 311.207 C 336.865 308.731 352.443 302.044 363.489 290.899 C 385.582 268.361 381.616 236.907 381.616 235.421 L 381.05 231.211 L 340.264 231.211 C 339.98 222.791 339.131 214.37 337.431 206.445 L 162.107 206.445 C 160.691 214.37 159.841 222.791 159.274 231.211 L 118.771 231.211 L 118.205 235.421 C 117.922 236.66 114.24 268.361 136.332 290.899 C 147.378 302.044 162.956 308.731 182.5 311.207 C 196.662 333.002 215.072 349.596 230.367 358.016 L 230.367 378.572 L 183.633 378.572 C 176.835 378.572 171.454 383.278 171.454 389.222 L 171.454 412.007 L 328.934 412.007 L 328.934 389.222 C 328.934 383.278 323.553 378.572 316.755 378.572 L 269.454 378.572 L 269.454 358.264 C 284.749 349.596 303.159 333.002 317.321 311.207 Z M 354.992 284.707 C 347.345 292.385 336.865 297.586 323.836 300.31 C 333.466 282.726 339.98 262.417 340.547 240.87 L 370.853 240.87 C 371.137 249.786 369.72 269.847 354.992 284.707 Z M 144.829 284.707 C 130.384 269.847 128.968 249.786 128.968 241.118 L 159.274 241.118 C 159.841 262.665 166.355 282.973 175.985 300.558 C 162.956 297.586 152.477 292.385 144.829 284.707 Z" style="fill: rgb(255, 197, 77);"/>
  <g transform="matrix(2.832383, 0, 0, 2.47666, 79.967674, 160.626358)">
    <polygon class="st2" points="19.1,83.9 23.4,78.6 27.7,83.9 27.7,28.5 19.1,28.5   " style="fill: rgb(129, 226, 164);"/>
    <polygon class="st2" points="92.3,28.5 92.3,83.9 96.6,78.6 100.9,83.9 100.9,28.5   " style="fill: rgb(129, 226, 164);"/>
  </g>
  <path fill="#DD2E44" d="M 282.32 278.098 C 282.32 276.798 277.335 277.153 276.939 276.208 C 276.543 275.264 282.463 267.547 281.602 265.816 C 280.742 264.086 272.844 268.022 272.346 267.154 C 271.85 266.289 272.849 260.542 271.988 259.833 C 271.127 259.124 262.947 269.121 261.799 267.942 C 260.652 266.761 264.454 248.104 263.668 247.729 C 262.884 247.355 257.781 250.309 257.137 250.152 C 256.492 249.993 252.497 238.577 251.323 238.577 C 250.149 238.577 246.154 249.993 245.509 250.15 C 244.865 250.306 239.762 247.353 238.978 247.728 C 238.192 248.102 241.994 266.76 240.846 267.94 C 239.699 269.121 231.519 259.124 230.658 259.833 C 229.797 260.542 230.796 266.289 230.3 267.154 C 229.802 268.02 221.904 264.084 221.044 265.816 C 220.182 267.549 226.105 275.264 225.707 276.208 C 225.31 277.153 220.326 276.798 220.326 278.098 C 220.326 279.397 234.857 287.989 235.824 289.001 C 236.792 290.012 230.806 294.295 231.662 295.102 C 232.654 296.039 238.273 293.534 249.601 293.294 L 249.601 304.706 C 249.601 306.161 251.037 307.07 252.184 306.342 C 252.718 306.006 253.045 305.382 253.045 304.706 L 253.045 293.294 C 264.372 293.534 269.992 296.039 270.984 295.102 C 271.838 294.293 265.854 290.012 266.822 289.001 C 267.789 287.989 282.32 279.396 282.32 278.098 Z" style=""/>
</svg>